<mxfile host="app.diagrams.net" modified="2024-06-09T17:28:13.705Z" agent="Mozilla/5.0 (Windows NT 10.0; Win64; x64; rv:126.0) Gecko/20100101 Firefox/126.0" etag="DjciZ06YnHgS_NYaIKsG" version="24.5.2" type="device">
  <diagram name="Page-1" id="LUzTnhxwMrxe2TrHh8Jn">
    <mxGraphModel dx="3413" dy="1195" grid="1" gridSize="10" guides="1" tooltips="1" connect="1" arrows="1" fold="1" page="1" pageScale="1" pageWidth="827" pageHeight="1169" math="0" shadow="0">
      <root>
        <mxCell id="0" />
        <mxCell id="1" parent="0" />
        <mxCell id="decnIpiyIyRhdiq8BNif-1" value="Преподаватель" style="shape=umlActor;html=1;verticalLabelPosition=bottom;verticalAlign=top;align=center;" vertex="1" parent="1">
          <mxGeometry x="640" y="560" width="30" height="60" as="geometry" />
        </mxCell>
        <mxCell id="decnIpiyIyRhdiq8BNif-2" value="Студент" style="shape=umlActor;html=1;verticalLabelPosition=bottom;verticalAlign=top;align=center;" vertex="1" parent="1">
          <mxGeometry x="210" y="559" width="30" height="60" as="geometry" />
        </mxCell>
        <mxCell id="decnIpiyIyRhdiq8BNif-3" value="Посетитель" style="shape=umlActor;html=1;verticalLabelPosition=bottom;verticalAlign=top;align=center;" vertex="1" parent="1">
          <mxGeometry x="415" y="300" width="30" height="60" as="geometry" />
        </mxCell>
        <mxCell id="decnIpiyIyRhdiq8BNif-6" value="Авторизация" style="ellipse;whiteSpace=wrap;html=1;" vertex="1" parent="1">
          <mxGeometry x="360" y="580" width="140" height="70" as="geometry" />
        </mxCell>
        <mxCell id="decnIpiyIyRhdiq8BNif-7" value="Работа с профилем" style="ellipse;whiteSpace=wrap;html=1;" vertex="1" parent="1">
          <mxGeometry x="370" y="910" width="140" height="70" as="geometry" />
        </mxCell>
        <mxCell id="decnIpiyIyRhdiq8BNif-8" value="Связь с администратором" style="ellipse;whiteSpace=wrap;html=1;" vertex="1" parent="1">
          <mxGeometry x="360" y="680" width="140" height="70" as="geometry" />
        </mxCell>
        <mxCell id="decnIpiyIyRhdiq8BNif-9" value="Смена пароля" style="ellipse;whiteSpace=wrap;html=1;" vertex="1" parent="1">
          <mxGeometry x="240" y="1000" width="140" height="70" as="geometry" />
        </mxCell>
        <mxCell id="decnIpiyIyRhdiq8BNif-10" value="Работа с профилем преподавателя" style="ellipse;whiteSpace=wrap;html=1;" vertex="1" parent="1">
          <mxGeometry x="687" y="240" width="140" height="70" as="geometry" />
        </mxCell>
        <mxCell id="decnIpiyIyRhdiq8BNif-12" value="Бронирование урока" style="ellipse;whiteSpace=wrap;html=1;" vertex="1" parent="1">
          <mxGeometry x="10" y="300" width="140" height="70" as="geometry" />
        </mxCell>
        <mxCell id="decnIpiyIyRhdiq8BNif-13" value="Управление уроками" style="ellipse;whiteSpace=wrap;html=1;" vertex="1" parent="1">
          <mxGeometry x="20" y="560" width="140" height="70" as="geometry" />
        </mxCell>
        <mxCell id="decnIpiyIyRhdiq8BNif-14" value="Подтверждение брони" style="ellipse;whiteSpace=wrap;html=1;" vertex="1" parent="1">
          <mxGeometry x="-160" y="370" width="140" height="70" as="geometry" />
        </mxCell>
        <mxCell id="decnIpiyIyRhdiq8BNif-15" value="Выбор предмета" style="ellipse;whiteSpace=wrap;html=1;" vertex="1" parent="1">
          <mxGeometry x="-170" y="210" width="140" height="70" as="geometry" />
        </mxCell>
        <mxCell id="decnIpiyIyRhdiq8BNif-16" value="Выбор преподавателя" style="ellipse;whiteSpace=wrap;html=1;" vertex="1" parent="1">
          <mxGeometry x="-330" y="250" width="140" height="70" as="geometry" />
        </mxCell>
        <mxCell id="decnIpiyIyRhdiq8BNif-17" value="Оплата урока" style="ellipse;whiteSpace=wrap;html=1;" vertex="1" parent="1">
          <mxGeometry x="-160" y="485" width="140" height="70" as="geometry" />
        </mxCell>
        <mxCell id="decnIpiyIyRhdiq8BNif-18" value="Перенос урока" style="ellipse;whiteSpace=wrap;html=1;" vertex="1" parent="1">
          <mxGeometry x="-310" y="520" width="140" height="70" as="geometry" />
        </mxCell>
        <mxCell id="decnIpiyIyRhdiq8BNif-19" value="Отмена урока" style="ellipse;whiteSpace=wrap;html=1;" vertex="1" parent="1">
          <mxGeometry x="-310" y="610" width="140" height="70" as="geometry" />
        </mxCell>
        <mxCell id="decnIpiyIyRhdiq8BNif-20" value="Выбор времени урока из расписания преподавателя" style="ellipse;whiteSpace=wrap;html=1;" vertex="1" parent="1">
          <mxGeometry x="-330" y="340" width="140" height="70" as="geometry" />
        </mxCell>
        <mxCell id="decnIpiyIyRhdiq8BNif-21" value="Видео-конфренция" style="ellipse;whiteSpace=wrap;html=1;" vertex="1" parent="1">
          <mxGeometry x="360" y="780" width="140" height="70" as="geometry" />
        </mxCell>
        <mxCell id="decnIpiyIyRhdiq8BNif-22" value="Подписка на уведомления" style="ellipse;whiteSpace=wrap;html=1;" vertex="1" parent="1">
          <mxGeometry x="50" y="700" width="140" height="70" as="geometry" />
        </mxCell>
        <mxCell id="decnIpiyIyRhdiq8BNif-23" value="Работа с рейтингом преподавателя" style="ellipse;whiteSpace=wrap;html=1;" vertex="1" parent="1">
          <mxGeometry x="50" y="960" width="140" height="70" as="geometry" />
        </mxCell>
        <mxCell id="decnIpiyIyRhdiq8BNif-26" value="Работа с продуктами" style="ellipse;whiteSpace=wrap;html=1;" vertex="1" parent="1">
          <mxGeometry x="780" y="440" width="140" height="70" as="geometry" />
        </mxCell>
        <mxCell id="decnIpiyIyRhdiq8BNif-27" value="CRUD-операции с продуктом" style="ellipse;whiteSpace=wrap;html=1;" vertex="1" parent="1">
          <mxGeometry x="950" y="260" width="140" height="70" as="geometry" />
        </mxCell>
        <mxCell id="decnIpiyIyRhdiq8BNif-28" value="Установление цены на продукт" style="ellipse;whiteSpace=wrap;html=1;" vertex="1" parent="1">
          <mxGeometry x="1010" y="350" width="140" height="70" as="geometry" />
        </mxCell>
        <mxCell id="decnIpiyIyRhdiq8BNif-29" value="Установление срока действия цены" style="ellipse;whiteSpace=wrap;html=1;" vertex="1" parent="1">
          <mxGeometry x="1000" y="460" width="140" height="70" as="geometry" />
        </mxCell>
        <mxCell id="decnIpiyIyRhdiq8BNif-30" value="Работа с расписанием" style="ellipse;whiteSpace=wrap;html=1;" vertex="1" parent="1">
          <mxGeometry x="770" y="620" width="140" height="70" as="geometry" />
        </mxCell>
        <mxCell id="decnIpiyIyRhdiq8BNif-31" value="Выбор дня" style="ellipse;whiteSpace=wrap;html=1;" vertex="1" parent="1">
          <mxGeometry x="960" y="554" width="140" height="70" as="geometry" />
        </mxCell>
        <mxCell id="decnIpiyIyRhdiq8BNif-32" value="Выбор времени" style="ellipse;whiteSpace=wrap;html=1;" vertex="1" parent="1">
          <mxGeometry x="1110" y="640" width="140" height="70" as="geometry" />
        </mxCell>
        <mxCell id="decnIpiyIyRhdiq8BNif-33" value="Удаление расписания" style="ellipse;whiteSpace=wrap;html=1;" vertex="1" parent="1">
          <mxGeometry x="940" y="700" width="140" height="70" as="geometry" />
        </mxCell>
        <mxCell id="decnIpiyIyRhdiq8BNif-34" value="Работа с уроком" style="ellipse;whiteSpace=wrap;html=1;" vertex="1" parent="1">
          <mxGeometry x="720" y="750" width="140" height="70" as="geometry" />
        </mxCell>
        <mxCell id="decnIpiyIyRhdiq8BNif-35" value="Подтверждение проведения урока " style="ellipse;whiteSpace=wrap;html=1;" vertex="1" parent="1">
          <mxGeometry x="-150" y="660" width="140" height="70" as="geometry" />
        </mxCell>
        <mxCell id="decnIpiyIyRhdiq8BNif-36" value="Перенос урока" style="ellipse;whiteSpace=wrap;html=1;" vertex="1" parent="1">
          <mxGeometry x="950" y="820" width="140" height="70" as="geometry" />
        </mxCell>
        <mxCell id="decnIpiyIyRhdiq8BNif-37" value="Отмена урока" style="ellipse;whiteSpace=wrap;html=1;" vertex="1" parent="1">
          <mxGeometry x="870" y="890" width="140" height="70" as="geometry" />
        </mxCell>
        <mxCell id="decnIpiyIyRhdiq8BNif-38" value="Подтверждение проведения урока" style="ellipse;whiteSpace=wrap;html=1;" vertex="1" parent="1">
          <mxGeometry x="710" y="920" width="140" height="70" as="geometry" />
        </mxCell>
        <mxCell id="decnIpiyIyRhdiq8BNif-39" value="Работа со счетом" style="ellipse;whiteSpace=wrap;html=1;" vertex="1" parent="1">
          <mxGeometry x="640" y="1080" width="140" height="70" as="geometry" />
        </mxCell>
        <mxCell id="decnIpiyIyRhdiq8BNif-40" value="Просмотр состояния счета" style="ellipse;whiteSpace=wrap;html=1;" vertex="1" parent="1">
          <mxGeometry x="827" y="1030" width="140" height="70" as="geometry" />
        </mxCell>
        <mxCell id="decnIpiyIyRhdiq8BNif-41" value="Вывод денег со счета" style="ellipse;whiteSpace=wrap;html=1;" vertex="1" parent="1">
          <mxGeometry x="827" y="1140" width="140" height="70" as="geometry" />
        </mxCell>
        <mxCell id="decnIpiyIyRhdiq8BNif-45" value="" style="edgeStyle=none;html=1;endArrow=block;endFill=0;endSize=12;verticalAlign=bottom;rounded=0;" edge="1" parent="1">
          <mxGeometry width="160" relative="1" as="geometry">
            <mxPoint x="230" y="550" as="sourcePoint" />
            <mxPoint x="410" y="330" as="targetPoint" />
          </mxGeometry>
        </mxCell>
        <mxCell id="decnIpiyIyRhdiq8BNif-46" value="" style="edgeStyle=none;html=1;endArrow=block;endFill=0;endSize=12;verticalAlign=bottom;rounded=0;" edge="1" parent="1">
          <mxGeometry width="160" relative="1" as="geometry">
            <mxPoint x="640" y="550" as="sourcePoint" />
            <mxPoint x="450" y="330" as="targetPoint" />
          </mxGeometry>
        </mxCell>
        <mxCell id="decnIpiyIyRhdiq8BNif-47" value="" style="edgeStyle=none;html=1;endArrow=none;verticalAlign=bottom;rounded=0;entryX=0;entryY=0.5;entryDx=0;entryDy=0;" edge="1" parent="1" source="decnIpiyIyRhdiq8BNif-2" target="decnIpiyIyRhdiq8BNif-6">
          <mxGeometry width="160" relative="1" as="geometry">
            <mxPoint x="600" y="640" as="sourcePoint" />
            <mxPoint x="760" y="640" as="targetPoint" />
          </mxGeometry>
        </mxCell>
        <mxCell id="decnIpiyIyRhdiq8BNif-48" value="" style="edgeStyle=none;html=1;endArrow=none;verticalAlign=bottom;rounded=0;exitX=1;exitY=0.5;exitDx=0;exitDy=0;" edge="1" parent="1" source="decnIpiyIyRhdiq8BNif-6">
          <mxGeometry width="160" relative="1" as="geometry">
            <mxPoint x="600" y="640" as="sourcePoint" />
            <mxPoint x="630" y="580" as="targetPoint" />
          </mxGeometry>
        </mxCell>
        <mxCell id="decnIpiyIyRhdiq8BNif-49" value="" style="edgeStyle=none;html=1;endArrow=none;verticalAlign=bottom;rounded=0;entryX=0;entryY=0.5;entryDx=0;entryDy=0;" edge="1" parent="1" target="decnIpiyIyRhdiq8BNif-7">
          <mxGeometry width="160" relative="1" as="geometry">
            <mxPoint x="250" y="650" as="sourcePoint" />
            <mxPoint x="760" y="640" as="targetPoint" />
          </mxGeometry>
        </mxCell>
        <mxCell id="decnIpiyIyRhdiq8BNif-50" value="" style="edgeStyle=none;html=1;endArrow=none;verticalAlign=bottom;rounded=0;exitX=1;exitY=0.5;exitDx=0;exitDy=0;" edge="1" parent="1" source="decnIpiyIyRhdiq8BNif-7">
          <mxGeometry width="160" relative="1" as="geometry">
            <mxPoint x="600" y="640" as="sourcePoint" />
            <mxPoint x="640" y="650" as="targetPoint" />
          </mxGeometry>
        </mxCell>
        <mxCell id="decnIpiyIyRhdiq8BNif-51" value="" style="edgeStyle=none;html=1;endArrow=none;verticalAlign=bottom;rounded=0;entryX=0;entryY=0.5;entryDx=0;entryDy=0;" edge="1" parent="1" source="decnIpiyIyRhdiq8BNif-2" target="decnIpiyIyRhdiq8BNif-8">
          <mxGeometry width="160" relative="1" as="geometry">
            <mxPoint x="600" y="640" as="sourcePoint" />
            <mxPoint x="760" y="640" as="targetPoint" />
          </mxGeometry>
        </mxCell>
        <mxCell id="decnIpiyIyRhdiq8BNif-52" value="" style="edgeStyle=none;html=1;endArrow=none;verticalAlign=bottom;rounded=0;exitX=1;exitY=0.5;exitDx=0;exitDy=0;" edge="1" parent="1" source="decnIpiyIyRhdiq8BNif-8">
          <mxGeometry width="160" relative="1" as="geometry">
            <mxPoint x="600" y="640" as="sourcePoint" />
            <mxPoint x="630" y="590" as="targetPoint" />
          </mxGeometry>
        </mxCell>
        <mxCell id="decnIpiyIyRhdiq8BNif-53" value="" style="edgeStyle=none;html=1;endArrow=none;verticalAlign=bottom;rounded=0;exitX=1.007;exitY=0.657;exitDx=0;exitDy=0;exitPerimeter=0;" edge="1" parent="1" source="decnIpiyIyRhdiq8BNif-12">
          <mxGeometry width="160" relative="1" as="geometry">
            <mxPoint x="600" y="640" as="sourcePoint" />
            <mxPoint x="200" y="570" as="targetPoint" />
          </mxGeometry>
        </mxCell>
        <mxCell id="decnIpiyIyRhdiq8BNif-55" value="Просмотр информации о платформе" style="ellipse;whiteSpace=wrap;html=1;" vertex="1" parent="1">
          <mxGeometry x="230" y="180" width="140" height="70" as="geometry" />
        </mxCell>
        <mxCell id="decnIpiyIyRhdiq8BNif-56" value="&amp;lt;&amp;lt;include&amp;gt;&amp;gt;" style="edgeStyle=none;html=1;endArrow=open;verticalAlign=bottom;dashed=1;labelBackgroundColor=none;rounded=0;entryX=1.014;entryY=0.643;entryDx=0;entryDy=0;entryPerimeter=0;exitX=0;exitY=0;exitDx=0;exitDy=0;" edge="1" parent="1" source="decnIpiyIyRhdiq8BNif-12" target="decnIpiyIyRhdiq8BNif-15">
          <mxGeometry width="160" relative="1" as="geometry">
            <mxPoint x="820" y="500" as="sourcePoint" />
            <mxPoint x="980" y="500" as="targetPoint" />
          </mxGeometry>
        </mxCell>
        <mxCell id="decnIpiyIyRhdiq8BNif-57" value="&amp;lt;&amp;lt;include&amp;gt;&amp;gt;" style="edgeStyle=none;html=1;endArrow=open;verticalAlign=bottom;dashed=1;labelBackgroundColor=none;rounded=0;entryX=1;entryY=0.5;entryDx=0;entryDy=0;exitX=-0.014;exitY=0.286;exitDx=0;exitDy=0;exitPerimeter=0;" edge="1" parent="1" source="decnIpiyIyRhdiq8BNif-12" target="decnIpiyIyRhdiq8BNif-16">
          <mxGeometry width="160" relative="1" as="geometry">
            <mxPoint x="820" y="500" as="sourcePoint" />
            <mxPoint x="980" y="500" as="targetPoint" />
          </mxGeometry>
        </mxCell>
        <mxCell id="decnIpiyIyRhdiq8BNif-59" value="&amp;lt;&amp;lt;include&amp;gt;&amp;gt;" style="edgeStyle=none;html=1;endArrow=open;verticalAlign=bottom;dashed=1;labelBackgroundColor=none;rounded=0;entryX=1;entryY=0.5;entryDx=0;entryDy=0;exitX=0;exitY=0.5;exitDx=0;exitDy=0;" edge="1" parent="1" source="decnIpiyIyRhdiq8BNif-12" target="decnIpiyIyRhdiq8BNif-20">
          <mxGeometry width="160" relative="1" as="geometry">
            <mxPoint x="820" y="500" as="sourcePoint" />
            <mxPoint x="980" y="500" as="targetPoint" />
          </mxGeometry>
        </mxCell>
        <mxCell id="decnIpiyIyRhdiq8BNif-60" value="&amp;lt;&amp;lt;include&amp;gt;&amp;gt;" style="edgeStyle=none;html=1;endArrow=open;verticalAlign=bottom;dashed=1;labelBackgroundColor=none;rounded=0;entryX=1;entryY=0.5;entryDx=0;entryDy=0;exitX=0;exitY=1;exitDx=0;exitDy=0;" edge="1" parent="1" source="decnIpiyIyRhdiq8BNif-12" target="decnIpiyIyRhdiq8BNif-14">
          <mxGeometry width="160" relative="1" as="geometry">
            <mxPoint x="820" y="500" as="sourcePoint" />
            <mxPoint x="980" y="500" as="targetPoint" />
          </mxGeometry>
        </mxCell>
        <mxCell id="decnIpiyIyRhdiq8BNif-61" value="&amp;lt;&amp;lt;include&amp;gt;&amp;gt;" style="edgeStyle=none;html=1;endArrow=open;verticalAlign=bottom;dashed=1;labelBackgroundColor=none;rounded=0;entryX=1;entryY=0.5;entryDx=0;entryDy=0;exitX=0.257;exitY=0.029;exitDx=0;exitDy=0;exitPerimeter=0;" edge="1" parent="1" source="decnIpiyIyRhdiq8BNif-13" target="decnIpiyIyRhdiq8BNif-17">
          <mxGeometry width="160" relative="1" as="geometry">
            <mxPoint x="820" y="500" as="sourcePoint" />
            <mxPoint x="980" y="500" as="targetPoint" />
          </mxGeometry>
        </mxCell>
        <mxCell id="decnIpiyIyRhdiq8BNif-62" value="&amp;lt;&amp;lt;include&amp;gt;&amp;gt;" style="edgeStyle=none;html=1;endArrow=open;verticalAlign=bottom;dashed=1;labelBackgroundColor=none;rounded=0;entryX=1;entryY=0.286;entryDx=0;entryDy=0;entryPerimeter=0;exitX=0.314;exitY=1.014;exitDx=0;exitDy=0;exitPerimeter=0;" edge="1" parent="1" source="decnIpiyIyRhdiq8BNif-13" target="decnIpiyIyRhdiq8BNif-35">
          <mxGeometry width="160" relative="1" as="geometry">
            <mxPoint x="820" y="500" as="sourcePoint" />
            <mxPoint x="980" y="500" as="targetPoint" />
          </mxGeometry>
        </mxCell>
        <mxCell id="decnIpiyIyRhdiq8BNif-63" value="&amp;lt;&amp;lt;extend&amp;gt;&amp;gt;" style="edgeStyle=none;html=1;startArrow=open;endArrow=none;startSize=12;verticalAlign=bottom;dashed=1;labelBackgroundColor=none;rounded=0;entryX=0.986;entryY=0.629;entryDx=0;entryDy=0;entryPerimeter=0;exitX=-0.014;exitY=0.414;exitDx=0;exitDy=0;exitPerimeter=0;" edge="1" parent="1" source="decnIpiyIyRhdiq8BNif-13" target="decnIpiyIyRhdiq8BNif-18">
          <mxGeometry width="160" relative="1" as="geometry">
            <mxPoint x="820" y="500" as="sourcePoint" />
            <mxPoint x="980" y="500" as="targetPoint" />
          </mxGeometry>
        </mxCell>
        <mxCell id="decnIpiyIyRhdiq8BNif-64" value="&amp;lt;&amp;lt;extend&amp;gt;&amp;gt;" style="edgeStyle=none;html=1;startArrow=open;endArrow=none;startSize=12;verticalAlign=bottom;dashed=1;labelBackgroundColor=none;rounded=0;exitX=0;exitY=0.714;exitDx=0;exitDy=0;exitPerimeter=0;" edge="1" parent="1" source="decnIpiyIyRhdiq8BNif-13">
          <mxGeometry width="160" relative="1" as="geometry">
            <mxPoint x="820" y="500" as="sourcePoint" />
            <mxPoint x="-160" y="640" as="targetPoint" />
          </mxGeometry>
        </mxCell>
        <mxCell id="decnIpiyIyRhdiq8BNif-65" value="" style="edgeStyle=none;html=1;endArrow=none;verticalAlign=bottom;rounded=0;exitX=1;exitY=0.5;exitDx=0;exitDy=0;" edge="1" parent="1" source="decnIpiyIyRhdiq8BNif-13">
          <mxGeometry width="160" relative="1" as="geometry">
            <mxPoint x="820" y="500" as="sourcePoint" />
            <mxPoint x="200" y="590" as="targetPoint" />
          </mxGeometry>
        </mxCell>
        <mxCell id="decnIpiyIyRhdiq8BNif-68" value="" style="edgeStyle=none;html=1;endArrow=none;verticalAlign=bottom;rounded=0;entryX=1;entryY=0.5;entryDx=0;entryDy=0;" edge="1" parent="1" target="decnIpiyIyRhdiq8BNif-21">
          <mxGeometry width="160" relative="1" as="geometry">
            <mxPoint x="620" y="600" as="sourcePoint" />
            <mxPoint x="980" y="690" as="targetPoint" />
          </mxGeometry>
        </mxCell>
        <mxCell id="decnIpiyIyRhdiq8BNif-69" value="" style="edgeStyle=none;html=1;endArrow=none;verticalAlign=bottom;rounded=0;entryX=0;entryY=0.4;entryDx=0;entryDy=0;entryPerimeter=0;" edge="1" parent="1" source="decnIpiyIyRhdiq8BNif-2" target="decnIpiyIyRhdiq8BNif-21">
          <mxGeometry width="160" relative="1" as="geometry">
            <mxPoint x="250" y="600" as="sourcePoint" />
            <mxPoint x="980" y="690" as="targetPoint" />
          </mxGeometry>
        </mxCell>
        <mxCell id="decnIpiyIyRhdiq8BNif-70" value="" style="edgeStyle=none;html=1;endArrow=none;verticalAlign=bottom;rounded=0;entryX=0.593;entryY=-0.014;entryDx=0;entryDy=0;entryPerimeter=0;" edge="1" parent="1" target="decnIpiyIyRhdiq8BNif-22">
          <mxGeometry width="160" relative="1" as="geometry">
            <mxPoint x="220" y="650" as="sourcePoint" />
            <mxPoint x="980" y="690" as="targetPoint" />
          </mxGeometry>
        </mxCell>
        <mxCell id="decnIpiyIyRhdiq8BNif-71" value="Заполнение профиля" style="ellipse;whiteSpace=wrap;html=1;" vertex="1" parent="1">
          <mxGeometry x="370" y="1090" width="140" height="70" as="geometry" />
        </mxCell>
        <mxCell id="decnIpiyIyRhdiq8BNif-72" value="Установаление аватара" style="ellipse;whiteSpace=wrap;html=1;" vertex="1" parent="1">
          <mxGeometry x="510" y="1010" width="140" height="70" as="geometry" />
        </mxCell>
        <mxCell id="decnIpiyIyRhdiq8BNif-73" value="&amp;lt;&amp;lt;extend&amp;gt;&amp;gt;" style="edgeStyle=none;html=1;startArrow=open;endArrow=none;startSize=12;verticalAlign=bottom;dashed=1;labelBackgroundColor=none;rounded=0;entryX=0.55;entryY=-0.014;entryDx=0;entryDy=0;entryPerimeter=0;" edge="1" parent="1" target="decnIpiyIyRhdiq8BNif-9">
          <mxGeometry width="160" relative="1" as="geometry">
            <mxPoint x="380" y="960" as="sourcePoint" />
            <mxPoint x="980" y="690" as="targetPoint" />
          </mxGeometry>
        </mxCell>
        <mxCell id="decnIpiyIyRhdiq8BNif-74" value="&amp;lt;&amp;lt;extend&amp;gt;&amp;gt;" style="edgeStyle=none;html=1;startArrow=open;endArrow=none;startSize=12;verticalAlign=bottom;dashed=1;labelBackgroundColor=none;rounded=0;entryX=0.5;entryY=0;entryDx=0;entryDy=0;exitX=0.5;exitY=1;exitDx=0;exitDy=0;" edge="1" parent="1" source="decnIpiyIyRhdiq8BNif-7" target="decnIpiyIyRhdiq8BNif-71">
          <mxGeometry width="160" relative="1" as="geometry">
            <mxPoint x="820" y="690" as="sourcePoint" />
            <mxPoint x="980" y="690" as="targetPoint" />
          </mxGeometry>
        </mxCell>
        <mxCell id="decnIpiyIyRhdiq8BNif-75" value="&amp;lt;&amp;lt;extend&amp;gt;&amp;gt;" style="edgeStyle=none;html=1;startArrow=open;endArrow=none;startSize=12;verticalAlign=bottom;dashed=1;labelBackgroundColor=none;rounded=0;exitX=1;exitY=0.714;exitDx=0;exitDy=0;exitPerimeter=0;" edge="1" parent="1" source="decnIpiyIyRhdiq8BNif-7">
          <mxGeometry width="160" relative="1" as="geometry">
            <mxPoint x="820" y="690" as="sourcePoint" />
            <mxPoint x="590" y="1000" as="targetPoint" />
          </mxGeometry>
        </mxCell>
        <mxCell id="decnIpiyIyRhdiq8BNif-76" value="Авторизация по email" style="ellipse;whiteSpace=wrap;html=1;" vertex="1" parent="1">
          <mxGeometry x="290" y="470" width="140" height="70" as="geometry" />
        </mxCell>
        <mxCell id="decnIpiyIyRhdiq8BNif-77" value="Авторизация по номеру телефона" style="ellipse;whiteSpace=wrap;html=1;" vertex="1" parent="1">
          <mxGeometry x="440" y="470" width="140" height="70" as="geometry" />
        </mxCell>
        <mxCell id="decnIpiyIyRhdiq8BNif-78" value="Уведомление о начале урока" style="ellipse;whiteSpace=wrap;html=1;" vertex="1" parent="1">
          <mxGeometry x="-130" y="760" width="140" height="70" as="geometry" />
        </mxCell>
        <mxCell id="decnIpiyIyRhdiq8BNif-79" value="Уведомление о расписании преподавателя" style="ellipse;whiteSpace=wrap;html=1;" vertex="1" parent="1">
          <mxGeometry x="-70" y="850" width="140" height="70" as="geometry" />
        </mxCell>
        <mxCell id="decnIpiyIyRhdiq8BNif-81" value="&amp;lt;&amp;lt;extend&amp;gt;&amp;gt;" style="edgeStyle=none;html=1;startArrow=open;endArrow=none;startSize=12;verticalAlign=bottom;dashed=1;labelBackgroundColor=none;rounded=0;entryX=1;entryY=0.5;entryDx=0;entryDy=0;exitX=0.071;exitY=0.814;exitDx=0;exitDy=0;exitPerimeter=0;" edge="1" parent="1" source="decnIpiyIyRhdiq8BNif-22" target="decnIpiyIyRhdiq8BNif-78">
          <mxGeometry width="160" relative="1" as="geometry">
            <mxPoint x="60" y="790" as="sourcePoint" />
            <mxPoint x="980" y="690" as="targetPoint" />
          </mxGeometry>
        </mxCell>
        <mxCell id="decnIpiyIyRhdiq8BNif-82" value="&amp;lt;&amp;lt;extend&amp;gt;&amp;gt;" style="edgeStyle=none;html=1;startArrow=open;endArrow=none;startSize=12;verticalAlign=bottom;dashed=1;labelBackgroundColor=none;rounded=0;entryX=1;entryY=0.5;entryDx=0;entryDy=0;exitX=0.35;exitY=0.971;exitDx=0;exitDy=0;exitPerimeter=0;" edge="1" parent="1" source="decnIpiyIyRhdiq8BNif-22" target="decnIpiyIyRhdiq8BNif-79">
          <mxGeometry width="160" relative="1" as="geometry">
            <mxPoint x="820" y="690" as="sourcePoint" />
            <mxPoint x="980" y="690" as="targetPoint" />
          </mxGeometry>
        </mxCell>
        <mxCell id="decnIpiyIyRhdiq8BNif-83" value="" style="edgeStyle=none;html=1;endArrow=none;verticalAlign=bottom;rounded=0;entryX=0.714;entryY=0;entryDx=0;entryDy=0;entryPerimeter=0;" edge="1" parent="1" target="decnIpiyIyRhdiq8BNif-23">
          <mxGeometry width="160" relative="1" as="geometry">
            <mxPoint x="230" y="650" as="sourcePoint" />
            <mxPoint x="980" y="690" as="targetPoint" />
          </mxGeometry>
        </mxCell>
        <mxCell id="decnIpiyIyRhdiq8BNif-84" value="&amp;lt;&amp;lt;include&amp;gt;&amp;gt;" style="edgeStyle=none;html=1;endArrow=open;verticalAlign=bottom;dashed=1;labelBackgroundColor=none;rounded=0;exitX=0.079;exitY=0.757;exitDx=0;exitDy=0;exitPerimeter=0;" edge="1" parent="1" source="decnIpiyIyRhdiq8BNif-23" target="decnIpiyIyRhdiq8BNif-85">
          <mxGeometry width="160" relative="1" as="geometry">
            <mxPoint x="820" y="690" as="sourcePoint" />
            <mxPoint y="1080" as="targetPoint" />
          </mxGeometry>
        </mxCell>
        <mxCell id="decnIpiyIyRhdiq8BNif-85" value="Выставление рейтинга" style="ellipse;whiteSpace=wrap;html=1;" vertex="1" parent="1">
          <mxGeometry x="-60" y="1060" width="140" height="70" as="geometry" />
        </mxCell>
        <mxCell id="decnIpiyIyRhdiq8BNif-86" value="Написание отзыва" style="ellipse;whiteSpace=wrap;html=1;" vertex="1" parent="1">
          <mxGeometry x="90" y="1110" width="140" height="70" as="geometry" />
        </mxCell>
        <mxCell id="decnIpiyIyRhdiq8BNif-87" value="&amp;lt;&amp;lt;extend&amp;gt;&amp;gt;" style="edgeStyle=none;html=1;startArrow=open;endArrow=none;startSize=12;verticalAlign=bottom;dashed=1;labelBackgroundColor=none;rounded=0;entryX=0.386;entryY=-0.029;entryDx=0;entryDy=0;entryPerimeter=0;" edge="1" parent="1" source="decnIpiyIyRhdiq8BNif-23" target="decnIpiyIyRhdiq8BNif-86">
          <mxGeometry width="160" relative="1" as="geometry">
            <mxPoint x="820" y="690" as="sourcePoint" />
            <mxPoint x="980" y="690" as="targetPoint" />
          </mxGeometry>
        </mxCell>
        <mxCell id="decnIpiyIyRhdiq8BNif-88" value="" style="edgeStyle=none;html=1;endArrow=none;verticalAlign=bottom;rounded=0;" edge="1" parent="1">
          <mxGeometry width="160" relative="1" as="geometry">
            <mxPoint x="670" y="540" as="sourcePoint" />
            <mxPoint x="750" y="310" as="targetPoint" />
          </mxGeometry>
        </mxCell>
        <mxCell id="decnIpiyIyRhdiq8BNif-89" value="Добавить предметы" style="ellipse;whiteSpace=wrap;html=1;" vertex="1" parent="1">
          <mxGeometry x="560" y="150" width="140" height="70" as="geometry" />
        </mxCell>
        <mxCell id="decnIpiyIyRhdiq8BNif-90" value="Добавить подтверждающие документы" style="ellipse;whiteSpace=wrap;html=1;" vertex="1" parent="1">
          <mxGeometry x="720" y="120" width="140" height="70" as="geometry" />
        </mxCell>
        <mxCell id="decnIpiyIyRhdiq8BNif-91" value="Добавить опыт работы по каждому предмету" style="ellipse;whiteSpace=wrap;html=1;" vertex="1" parent="1">
          <mxGeometry x="840" y="190" width="140" height="70" as="geometry" />
        </mxCell>
        <mxCell id="decnIpiyIyRhdiq8BNif-93" value="Регистрация" style="ellipse;whiteSpace=wrap;html=1;" vertex="1" parent="1">
          <mxGeometry x="400" y="110" width="140" height="70" as="geometry" />
        </mxCell>
        <mxCell id="decnIpiyIyRhdiq8BNif-94" value="" style="edgeStyle=none;html=1;endArrow=none;verticalAlign=bottom;rounded=0;entryX=0.5;entryY=1;entryDx=0;entryDy=0;" edge="1" parent="1" target="decnIpiyIyRhdiq8BNif-93">
          <mxGeometry width="160" relative="1" as="geometry">
            <mxPoint x="450" y="280" as="sourcePoint" />
            <mxPoint x="810" y="610" as="targetPoint" />
          </mxGeometry>
        </mxCell>
        <mxCell id="decnIpiyIyRhdiq8BNif-97" value="" style="edgeStyle=none;html=1;endArrow=none;verticalAlign=bottom;rounded=0;" edge="1" parent="1">
          <mxGeometry width="160" relative="1" as="geometry">
            <mxPoint x="410" y="320" as="sourcePoint" />
            <mxPoint x="330" y="250" as="targetPoint" />
          </mxGeometry>
        </mxCell>
        <mxCell id="decnIpiyIyRhdiq8BNif-99" value="&amp;lt;&amp;lt;include&amp;gt;&amp;gt;" style="edgeStyle=none;html=1;endArrow=open;verticalAlign=bottom;dashed=1;labelBackgroundColor=none;rounded=0;entryX=0.764;entryY=0.986;entryDx=0;entryDy=0;entryPerimeter=0;exitX=0;exitY=0;exitDx=0;exitDy=0;" edge="1" parent="1" source="decnIpiyIyRhdiq8BNif-10" target="decnIpiyIyRhdiq8BNif-89">
          <mxGeometry width="160" relative="1" as="geometry">
            <mxPoint x="650" y="610" as="sourcePoint" />
            <mxPoint x="810" y="610" as="targetPoint" />
          </mxGeometry>
        </mxCell>
        <mxCell id="decnIpiyIyRhdiq8BNif-100" value="&amp;lt;&amp;lt;include&amp;gt;&amp;gt;" style="edgeStyle=none;html=1;endArrow=open;verticalAlign=bottom;dashed=1;labelBackgroundColor=none;rounded=0;entryX=0.5;entryY=1;entryDx=0;entryDy=0;exitX=0.593;exitY=0;exitDx=0;exitDy=0;exitPerimeter=0;" edge="1" parent="1" source="decnIpiyIyRhdiq8BNif-10" target="decnIpiyIyRhdiq8BNif-90">
          <mxGeometry width="160" relative="1" as="geometry">
            <mxPoint x="650" y="610" as="sourcePoint" />
            <mxPoint x="810" y="610" as="targetPoint" />
          </mxGeometry>
        </mxCell>
        <mxCell id="decnIpiyIyRhdiq8BNif-101" value="&amp;lt;&amp;lt;include&amp;gt;&amp;gt;" style="edgeStyle=none;html=1;endArrow=open;verticalAlign=bottom;dashed=1;labelBackgroundColor=none;rounded=0;entryX=0.307;entryY=1.029;entryDx=0;entryDy=0;entryPerimeter=0;" edge="1" parent="1" target="decnIpiyIyRhdiq8BNif-91">
          <mxGeometry width="160" relative="1" as="geometry">
            <mxPoint x="830" y="270" as="sourcePoint" />
            <mxPoint x="810" y="610" as="targetPoint" />
          </mxGeometry>
        </mxCell>
        <mxCell id="decnIpiyIyRhdiq8BNif-102" value="" style="edgeStyle=none;html=1;endArrow=none;verticalAlign=bottom;rounded=0;" edge="1" parent="1" target="decnIpiyIyRhdiq8BNif-26">
          <mxGeometry width="160" relative="1" as="geometry">
            <mxPoint x="680" y="560" as="sourcePoint" />
            <mxPoint x="810" y="610" as="targetPoint" />
          </mxGeometry>
        </mxCell>
        <mxCell id="decnIpiyIyRhdiq8BNif-103" value="" style="edgeStyle=none;html=1;endArrow=none;verticalAlign=bottom;rounded=0;entryX=0;entryY=0;entryDx=0;entryDy=0;" edge="1" parent="1" target="decnIpiyIyRhdiq8BNif-30">
          <mxGeometry width="160" relative="1" as="geometry">
            <mxPoint x="680" y="590" as="sourcePoint" />
            <mxPoint x="770" y="610" as="targetPoint" />
          </mxGeometry>
        </mxCell>
        <mxCell id="decnIpiyIyRhdiq8BNif-105" value="&amp;lt;&amp;lt;include&amp;gt;&amp;gt;" style="edgeStyle=none;html=1;endArrow=open;verticalAlign=bottom;dashed=1;labelBackgroundColor=none;rounded=0;entryX=0.264;entryY=0.929;entryDx=0;entryDy=0;entryPerimeter=0;exitX=0.429;exitY=0.029;exitDx=0;exitDy=0;exitPerimeter=0;" edge="1" parent="1" source="decnIpiyIyRhdiq8BNif-26" target="decnIpiyIyRhdiq8BNif-27">
          <mxGeometry width="160" relative="1" as="geometry">
            <mxPoint x="840" y="430" as="sourcePoint" />
            <mxPoint x="810" y="350" as="targetPoint" />
          </mxGeometry>
        </mxCell>
        <mxCell id="decnIpiyIyRhdiq8BNif-106" value="&amp;lt;&amp;lt;include&amp;gt;&amp;gt;" style="edgeStyle=none;html=1;endArrow=open;verticalAlign=bottom;dashed=1;labelBackgroundColor=none;rounded=0;entryX=1;entryY=0.3;entryDx=0;entryDy=0;entryPerimeter=0;exitX=0;exitY=1;exitDx=0;exitDy=0;" edge="1" parent="1" source="decnIpiyIyRhdiq8BNif-28" target="decnIpiyIyRhdiq8BNif-26">
          <mxGeometry width="160" relative="1" as="geometry">
            <mxPoint x="650" y="350" as="sourcePoint" />
            <mxPoint x="810" y="350" as="targetPoint" />
          </mxGeometry>
        </mxCell>
        <mxCell id="decnIpiyIyRhdiq8BNif-107" value="&amp;lt;&amp;lt;extend&amp;gt;&amp;gt;" style="edgeStyle=none;html=1;startArrow=open;endArrow=none;startSize=12;verticalAlign=bottom;dashed=1;labelBackgroundColor=none;rounded=0;entryX=0.943;entryY=0.8;entryDx=0;entryDy=0;entryPerimeter=0;exitX=0;exitY=0.5;exitDx=0;exitDy=0;" edge="1" parent="1" source="decnIpiyIyRhdiq8BNif-29" target="decnIpiyIyRhdiq8BNif-26">
          <mxGeometry width="160" relative="1" as="geometry">
            <mxPoint x="650" y="350" as="sourcePoint" />
            <mxPoint x="810" y="350" as="targetPoint" />
          </mxGeometry>
        </mxCell>
        <mxCell id="decnIpiyIyRhdiq8BNif-108" value="&amp;lt;&amp;lt;include&amp;gt;&amp;gt;" style="edgeStyle=none;html=1;endArrow=open;verticalAlign=bottom;dashed=1;labelBackgroundColor=none;rounded=0;entryX=-0.014;entryY=0.614;entryDx=0;entryDy=0;entryPerimeter=0;exitX=0.936;exitY=0.271;exitDx=0;exitDy=0;exitPerimeter=0;" edge="1" parent="1" source="decnIpiyIyRhdiq8BNif-30" target="decnIpiyIyRhdiq8BNif-31">
          <mxGeometry width="160" relative="1" as="geometry">
            <mxPoint x="650" y="590" as="sourcePoint" />
            <mxPoint x="810" y="590" as="targetPoint" />
          </mxGeometry>
        </mxCell>
        <mxCell id="decnIpiyIyRhdiq8BNif-109" value="&amp;lt;&amp;lt;include&amp;gt;&amp;gt;" style="edgeStyle=none;html=1;endArrow=open;verticalAlign=bottom;dashed=1;labelBackgroundColor=none;rounded=0;entryX=0;entryY=0.5;entryDx=0;entryDy=0;exitX=0.993;exitY=0.629;exitDx=0;exitDy=0;exitPerimeter=0;" edge="1" parent="1" source="decnIpiyIyRhdiq8BNif-30" target="decnIpiyIyRhdiq8BNif-32">
          <mxGeometry width="160" relative="1" as="geometry">
            <mxPoint x="650" y="590" as="sourcePoint" />
            <mxPoint x="810" y="590" as="targetPoint" />
          </mxGeometry>
        </mxCell>
        <mxCell id="decnIpiyIyRhdiq8BNif-110" value="&amp;lt;&amp;lt;extend&amp;gt;&amp;gt;" style="edgeStyle=none;html=1;startArrow=open;endArrow=none;startSize=12;verticalAlign=bottom;dashed=1;labelBackgroundColor=none;rounded=0;entryX=0;entryY=0.5;entryDx=0;entryDy=0;" edge="1" parent="1" source="decnIpiyIyRhdiq8BNif-30" target="decnIpiyIyRhdiq8BNif-33">
          <mxGeometry width="160" relative="1" as="geometry">
            <mxPoint x="650" y="590" as="sourcePoint" />
            <mxPoint x="810" y="590" as="targetPoint" />
          </mxGeometry>
        </mxCell>
        <mxCell id="decnIpiyIyRhdiq8BNif-111" value="" style="edgeStyle=none;html=1;endArrow=none;verticalAlign=bottom;rounded=0;entryX=0.5;entryY=0;entryDx=0;entryDy=0;" edge="1" parent="1" target="decnIpiyIyRhdiq8BNif-34">
          <mxGeometry width="160" relative="1" as="geometry">
            <mxPoint x="700" y="640" as="sourcePoint" />
            <mxPoint x="750" y="780" as="targetPoint" />
          </mxGeometry>
        </mxCell>
        <mxCell id="decnIpiyIyRhdiq8BNif-112" value="&amp;lt;&amp;lt;extend&amp;gt;&amp;gt;" style="edgeStyle=none;html=1;startArrow=open;endArrow=none;startSize=12;verticalAlign=bottom;dashed=1;labelBackgroundColor=none;rounded=0;exitX=1;exitY=0.5;exitDx=0;exitDy=0;" edge="1" parent="1" source="decnIpiyIyRhdiq8BNif-34" target="decnIpiyIyRhdiq8BNif-36">
          <mxGeometry width="160" relative="1" as="geometry">
            <mxPoint x="650" y="590" as="sourcePoint" />
            <mxPoint x="810" y="590" as="targetPoint" />
          </mxGeometry>
        </mxCell>
        <mxCell id="decnIpiyIyRhdiq8BNif-113" value="&amp;lt;&amp;lt;extend&amp;gt;&amp;gt;" style="edgeStyle=none;html=1;startArrow=open;endArrow=none;startSize=12;verticalAlign=bottom;dashed=1;labelBackgroundColor=none;rounded=0;entryX=0.014;entryY=0.414;entryDx=0;entryDy=0;entryPerimeter=0;exitX=0.721;exitY=0.986;exitDx=0;exitDy=0;exitPerimeter=0;" edge="1" parent="1" source="decnIpiyIyRhdiq8BNif-34" target="decnIpiyIyRhdiq8BNif-37">
          <mxGeometry width="160" relative="1" as="geometry">
            <mxPoint x="820" y="850" as="sourcePoint" />
            <mxPoint x="964" y="854" as="targetPoint" />
          </mxGeometry>
        </mxCell>
        <mxCell id="decnIpiyIyRhdiq8BNif-114" value="&amp;lt;&amp;lt;include&amp;gt;&amp;gt;" style="edgeStyle=none;html=1;endArrow=open;verticalAlign=bottom;dashed=1;labelBackgroundColor=none;rounded=0;entryX=0.5;entryY=0;entryDx=0;entryDy=0;exitX=0.343;exitY=1.014;exitDx=0;exitDy=0;exitPerimeter=0;" edge="1" parent="1" source="decnIpiyIyRhdiq8BNif-34" target="decnIpiyIyRhdiq8BNif-38">
          <mxGeometry width="160" relative="1" as="geometry">
            <mxPoint x="650" y="640" as="sourcePoint" />
            <mxPoint x="810" y="640" as="targetPoint" />
          </mxGeometry>
        </mxCell>
        <mxCell id="decnIpiyIyRhdiq8BNif-115" value="" style="edgeStyle=none;html=1;endArrow=none;verticalAlign=bottom;rounded=0;entryX=0.5;entryY=0;entryDx=0;entryDy=0;" edge="1" parent="1" target="decnIpiyIyRhdiq8BNif-39">
          <mxGeometry width="160" relative="1" as="geometry">
            <mxPoint x="660" y="650" as="sourcePoint" />
            <mxPoint x="710" y="1070" as="targetPoint" />
          </mxGeometry>
        </mxCell>
        <mxCell id="decnIpiyIyRhdiq8BNif-119" value="&amp;lt;&amp;lt;extend&amp;gt;&amp;gt;" style="edgeStyle=none;html=1;startArrow=open;endArrow=none;startSize=12;verticalAlign=bottom;dashed=1;labelBackgroundColor=none;rounded=0;entryX=-0.007;entryY=0.343;entryDx=0;entryDy=0;entryPerimeter=0;exitX=0.986;exitY=0.714;exitDx=0;exitDy=0;exitPerimeter=0;" edge="1" parent="1" source="decnIpiyIyRhdiq8BNif-39" target="decnIpiyIyRhdiq8BNif-41">
          <mxGeometry width="160" relative="1" as="geometry">
            <mxPoint x="270" y="940" as="sourcePoint" />
            <mxPoint x="430" y="940" as="targetPoint" />
          </mxGeometry>
        </mxCell>
        <mxCell id="decnIpiyIyRhdiq8BNif-120" value="&amp;lt;&amp;lt;extend&amp;gt;&amp;gt;" style="edgeStyle=none;html=1;startArrow=open;endArrow=none;startSize=12;verticalAlign=bottom;dashed=1;labelBackgroundColor=none;rounded=0;entryX=-0.014;entryY=0.329;entryDx=0;entryDy=0;entryPerimeter=0;exitX=0.929;exitY=0.143;exitDx=0;exitDy=0;exitPerimeter=0;" edge="1" parent="1" source="decnIpiyIyRhdiq8BNif-39" target="decnIpiyIyRhdiq8BNif-40">
          <mxGeometry width="160" relative="1" as="geometry">
            <mxPoint x="270" y="940" as="sourcePoint" />
            <mxPoint x="430" y="940" as="targetPoint" />
          </mxGeometry>
        </mxCell>
        <mxCell id="decnIpiyIyRhdiq8BNif-121" value="Подписка на уведомления" style="ellipse;whiteSpace=wrap;html=1;" vertex="1" parent="1">
          <mxGeometry x="530" y="300" width="140" height="70" as="geometry" />
        </mxCell>
        <mxCell id="decnIpiyIyRhdiq8BNif-122" value="" style="edgeStyle=none;html=1;endArrow=none;verticalAlign=bottom;rounded=0;" edge="1" parent="1" source="decnIpiyIyRhdiq8BNif-121">
          <mxGeometry width="160" relative="1" as="geometry">
            <mxPoint x="270" y="400" as="sourcePoint" />
            <mxPoint x="650" y="550" as="targetPoint" />
          </mxGeometry>
        </mxCell>
      </root>
    </mxGraphModel>
  </diagram>
</mxfile>
